<?xml version="1.0" encoding="utf-8"?>
<!-- Generator: Adobe Illustrator 21.1.0, SVG Export Plug-In . SVG Version: 6.00 Build 0)  -->
<svg version="1.1" id="Layer_1" xmlns="http://www.w3.org/2000/svg" xmlns:xlink="http://www.w3.org/1999/xlink" x="0px" y="0px"
	 viewBox="0 0 371.8 71.3" style="enable-background:new 0 0 371.8 71.3;" xml:space="preserve">
<style type="text/css">
	.st0{fill-rule:evenodd;clip-rule:evenodd;fill:#FFFFFF;}
	.st1{fill:#FFFFFF;}
</style>
<path class="st0" d="M267,52.2v15c0,0,0.4,1,2.6,1.1V69H260v-0.7c0,0,2,0,2.6-1.1v-7.3H255v7.4c0,0,0.4,1,2.6,1.1V69h-9.7v-0.7
	c0,0,1.9,0,2.6-1.1v-15c-0.7-1.1-2.6-1.1-2.6-1.1v-0.7h9.7v0.7c-2.3,0.1-2.6,1.1-2.6,1.1v6.5h7.6v-6.5c-0.7-1.1-2.6-1.1-2.6-1.1
	v-0.7h9.7v0.7C267.4,51.3,267,52.2,267,52.2 M251.3,52.3h0.7v14.9h-0.7V52.3z M263.3,52.3h0.7v14.9h-0.7V52.3z"/>
<path class="st0" d="M295.7,67.2c0,0,0.6,1,2.7,1.1V69h-9.8v-0.7c0,0,1.8,0,2.4-1.1v-15c-0.6-1.1-2.4-1.1-2.4-1.1v-0.7h8.9h3.2
	c0,0,4-0.2,5.3,3c0,0,0.6,1.7,0.1,3c-0.8,2.7-4.3,3.6-4.3,3.6s1.5,0.8,4.2,5c0,0,2.1,2.9,3.6,3.3l0.6,0.6l-6.5,0
	c-0.6-0.2-3.5-4.5-3.5-4.5c-2.4-3.9-4.3-3.6-4.5-3.5V67.2z M295.8,51.9c-0.1,0.2,0,0.3,0,0.3v7.4c0.2,0,4.6,0.3,5.9-3
	c0.3-0.9,0.2-1.8,0.2-1.8C301.4,50.7,295.8,51.9,295.8,51.9L295.8,51.9z M303.1,67.1h0.7c-0.6-0.6-2.6-3.6-2.6-3.6
	c-0.7-1.3-2.4-2.6-2.4-2.6l-0.7,0c0,0,1.8,1.4,2.5,2.8C300.7,63.7,302.2,66.1,303.1,67.1 M301.2,52c3.5,3.3,0,6.6,0,6.6
	s2.2-1.1,2.2-3.3C303.4,52.9,301.2,52,301.2,52 M292.1,52.3h0.6v14.9h-0.6V52.3z"/>
<path class="st0" d="M277.8,52.1v6.6h4c0.6-0.2,1.1-2.8,1.2-3.2h0.8V63h-0.8c-0.1-0.4-0.6-3-1.2-3.1h-4v6.3c0,0.3,0.2,1.4,1.3,1.4
	c0,0,3.6,0.6,6.6-0.6c0,0,0.6-0.6,1.3-3.4l0.8,0l-0.2,5.4h-9.2h-1.3h-6.4v-0.7c0,0,1.5,0,2.1-1.1v-15c-0.5-1.1-2.1-1.1-2.1-1.1v-0.7
	l16.3,0l0,5h-0.7c-0.7-2.8-1.4-3.3-1.4-3.3C282.2,51.2,278.4,51.9,277.8,52.1 M274.1,52.2h0.6v14.9h-0.6V52.2z"/>
<path class="st0" d="M317.4,54l-3,8h6.4L317.4,54z M317.7,52.3h0.6l6.2,14.8h-0.8L317.7,52.3z M313.9,63.2l-1.5,3.8
	c0,0,0.4,1.1,2.6,1.1V69h-7v-0.8c0,0,2.2,0,2.8-1.4l5.6-14.5c-0.5-1-2.6-1.1-2.6-1.1v-0.8h6.7l7.1,16.3c0,0,0.6,1.5,2.8,1.4V69h-10
	l0-0.8c0,0,2.2-0.1,2.6-1.1l-1.6-3.9H313.9z"/>
<path class="st0" d="M340.6,50.5v0.7c-2.2,0.2-2.3,0.8-2.6,1.1v13.8c0,0.3,0.2,1.4,1.1,1.4c0,0,3.6,0.5,6.5-0.6c0,0,0.8-1.2,1.3-4
	l0.7,0l-0.1,6h-16.6v-0.8c0,0,2.1-0.1,2.5-1.1l0-14.7c-0.4-1.1-2.6-1.2-2.6-1.2v-0.7H340.6z M334.4,52.4h0.6v14.8h-0.6V52.4z"/>
<path class="st0" d="M368.3,55.7c-2.4-5.4-8.7-5.2-8.7-5.2h-11.3v0.7c0,0,2.3,0.1,2.6,1.2v14.7c-0.3,1.1-2.6,1.2-2.6,1.2V69h10.1
	c4.6-0.1,8.4-2.2,9.9-5.6C370,59.5,368.3,55.7,368.3,55.7 M364.5,56.2c-0.7-3.4-2.7-4.2-2.7-4.2c2.4,0.6,3.6,3.6,3.7,6.8
	c0.1,3.6-1.1,7.3-3.6,8.1c0,0,2.8-1.5,2.9-7.3c0-0.1,0.1-0.9,0-1.6C364.7,57.1,364.5,56.2,364.5,56.2 M363.9,59.5c0,0,0.1,3.4-1,5.2
	c-1.6,3.4-5.7,3.1-5.7,3.1c-1.9-0.1-1.9-1.3-1.9-1.3l0-14.5c0,0,1.1-0.3,3.5-0.3c0,0,2.2-0.1,3.6,1.7c0,0,1.4,1.7,1.4,4.5
	L363.9,59.5z M351.6,52.3h0.7v14.9h-0.7V52.3z"/>
<path class="st0" d="M147,55.7c-2.3-5.2-8.4-5.1-8.4-5.1h-10.9v0.7c0,0,2.2,0.1,2.5,1.2v14.3c-0.3,1.1-2.5,1.2-2.5,1.2v0.7h9.8
	c4.4-0.1,8.1-2.1,9.6-5.4C148.7,59.4,147,55.7,147,55.7 M143.4,56.2c-0.7-3.3-2.6-4.1-2.6-4.1c2.3,0.6,3.5,3.5,3.6,6.6
	c0.1,3.4-1,7.1-3.5,7.8c0,0,2.7-1.5,2.8-7.1c0,0,0-0.9,0-1.6C143.6,57.1,143.4,56.2,143.4,56.2 M142.9,59.4c0,0,0.1,3.2-1,5
	c-1.5,3.3-5.5,3-5.5,3c-1.8-0.1-1.8-1.3-1.8-1.3l0-14.1c0,0,1.1-0.3,3.4-0.2c0,0,2.1-0.1,3.4,1.6c0,0,1.3,1.6,1.4,4.3L142.9,59.4z
	 M130.9,52.4h0.7v14.4h-0.7V52.4z"/>
<path class="st0" d="M155.2,52.2v6.4h3.9c0.5-0.2,1.1-2.7,1.2-3.1h0.7v7.3h-0.8c-0.1-0.4-0.6-2.9-1.2-3h-3.8v6.1
	c0,0.3,0.2,1.3,1.2,1.4c0,0,3.4,0.6,6.4-0.5c0,0,0.6-0.6,1.2-3.3l0.7,0l-0.2,5.2h-8.9h-1.3h-6.2V68c0,0,1.5,0,2-1.1V52.4
	c-0.5-1-2-1.1-2-1.1v-0.6l15.8,0l0,4.9h-0.7c-0.6-2.7-1.3-3.2-1.3-3.2C159.6,51.3,155.8,52.1,155.2,52.2 M151.7,52.4h0.5v14.4h-0.5
	V52.4z"/>
<path class="st0" d="M208.9,54.2l-3,7.8h6.2L208.9,54.2z M209.1,52.5h0.6l6,14.3H215L209.1,52.5z M205.5,63.1l-1.4,3.7
	c0,0,0.4,1.1,2.5,1.1v0.7h-6.8v-0.7c0,0,2.1,0,2.7-1.3l5.4-14.1c-0.5-1-2.6-1-2.6-1v-0.7h6.6l6.9,15.8c0,0,0.6,1.4,2.7,1.4v0.7h-9.8
	l0-0.7c0,0,2.2-0.1,2.5-1l-1.6-3.8H205.5z"/>
<path class="st0" d="M170.8,68c0,0,3.1,1.6,7.9,0.7c0,0,2.4-0.4,4.5-2.8l-0.6-0.8c-4.5,3.8-8.9,1.3-8.9,1.3c-6-3.4-4.1-16,4.2-14.6
	c0,0,2.3,0.2,2.6,1.4l0.8,2.5h0.7v-4.2c0,0-3.4-1.7-8.9-0.8c-4.4,0.8-6.3,5-6.3,5s-0.8,1.3-1,3.7C165.9,59.5,165.3,65.4,170.8,68
	 M167.2,60.5c0,0-0.1,4.6,4.1,6.9c-3.1-1.2-4.3-4.3-4.3-4.3c-0.9-2.9-0.3-5.4-0.3-5.4c1.1-4.4,4.4-5.6,4.4-5.6
	c-3.4,2.3-3.9,5.7-3.9,5.7S167.2,58.6,167.2,60.5"/>
<path class="st0" d="M188,68c0,0,3.1,1.6,7.9,0.7c0,0,2.4-0.4,4.5-2.8l-0.6-0.8c-4.5,3.8-8.9,1.3-8.9,1.3c-6-3.4-4.1-16,4.2-14.6
	c0,0,2.3,0.2,2.6,1.4l0.8,2.5h0.7v-4.2c0,0-3.4-1.7-8.9-0.8c-4.4,0.8-6.3,5-6.3,5s-0.8,1.3-1,3.7C183.1,59.5,182.5,65.4,188,68
	 M184.4,60.5c0,0-0.1,4.6,4.1,6.9c-3.1-1.2-4.3-4.3-4.3-4.3c-0.9-2.9-0.3-5.4-0.3-5.4c1.1-4.4,4.4-5.6,4.4-5.6
	c-3.4,2.3-3.9,5.7-3.9,5.7S184.4,58.6,184.4,60.5"/>
<path class="st0" d="M226,54.3l11.1,14.4h2.8l0-16.1c0.6-1,2.6-1.1,2.6-1.1v-0.7h-6.7l0,0.8c1.9,0,2.6,1.1,2.6,1.1l0,10.4l-9.5-12.2
	h-6.9v0.7c0,0,1.7,0,2.5,1.1l0,14.3c-0.6,1-2.6,1.1-2.6,1.1v0.7h6.7v-0.8c-1.9,0-2.6-1.1-2.6-1.1L226,54.3z M237.5,66.9l-11-14.3
	l-0.7,0l11,14.3L237.5,66.9z"/>
<path class="st0" d="M55.5,22.1C49.1,3.4,32.5,4,32.5,4H2.6v2.4c0,0,6,0.4,6.9,4.2v50.9c-0.9,3.8-6.9,4.2-6.9,4.2V68h26.8
	c12.1-0.3,22.1-7.6,26.3-19.2C60.1,35.3,55.5,22.1,55.5,22.1 M45.6,23.9c-2-11.7-7.1-14.5-7.1-14.5c6.3,2,9.5,12.5,9.9,23.5
	c0.4,12.3-2.8,25.3-9.6,28c0,0,7.4-5.3,7.7-25.2c0-0.2,0.1-3.2-0.1-5.6C46.1,26.8,45.6,23.9,45.6,23.9 M44,35.3
	c0,0,0.2,11.6-2.6,17.9C37.2,65,26.3,63.8,26.3,63.8c-5-0.5-5.1-4.7-5.1-4.7l0-50.3c0,0,3-1.1,9.4-0.9c0,0,5.7-0.3,9.4,5.8
	c0,0,3.6,5.9,3.8,15.5L44,35.3z M11.4,10.3h1.9v51.4h-1.9V10.3z"/>
<path class="st0" d="M110.4,9.9v52c0,0,1.1,3.3,7.8,3.7V68H89.6v-2.3c0,0,5.8-0.1,7.7-3.8V36.5H75.1V62c0,0,1.1,3.3,7.8,3.8V68H54.3
	v-2.3c0,0,5.8-0.1,7.7-3.8V10c-2-3.7-7.7-3.8-7.7-3.8V3.9h28.6v2.3c-6.7,0.4-7.8,3.8-7.8,3.8v22.4h22.3V10c-2-3.7-7.7-3.8-7.7-3.8
	V3.9h28.6v2.3C111.5,6.6,110.4,9.9,110.4,9.9 M64.1,10.3h2.1v51.7h-2.1V10.3z M99.5,10.3h2.1v51.7h-2.1V10.3z"/>
<g>
	<path class="st1" d="M272,38.6c-0.1-0.5-0.1-0.6-0.2-0.6c0,0-0.1,0-0.1,0c0,0,0,0.1-0.1,0.2c-0.3,1.2-0.8,1.7-0.8,1.7c0,0,0,0,0,0
		c-0.9,1.2-2.4,2-3.9,2h-48.1c-1.9,0-3.6-1.1-4.4-2.8c-0.1-0.2-0.3-0.7-0.3-0.9c0-0.1,0-0.2-0.2-0.2c-0.1,0-0.2,0.1-0.2,0.6
		c0,0.3,0,0.6,0,0.8c0,2.9,2.3,5.2,5.2,5.2h48.1c2.9,0,5.2-2.3,5.2-5.2C272.1,39.2,272.1,38.8,272,38.6z"/>
	<path class="st1" d="M218.3,40.5c0.5,0.2,1,0.2,1.5,0.2c0,0,0,0,0,0c1.1,0,1.9-0.2,2.4-0.3c0.2-0.1,0.4-0.1,0.5-0.1
		c0.4-0.1,1,0,1.7,0c0.3,0,0.6,0.1,0.9,0.1c2,0.2,4.7,0.4,6.1,0.3c0,0,0,0,0,0h0c1.5,0,2.6-0.6,3-0.8c0.8,0.4,2.8,0.7,3.6,0.8
		c0.6,0,1.2,0,1.9,0c2.9,0,6-0.3,7.8-0.5c2.8,0.6,7.5,0.7,10.9,0.7h0c3,0,5.6-0.1,6.1-0.2l0.2,0c1-0.1,3.2-0.3,4.1-2.4
		c0.4-0.8,0.3-1.7-0.1-2.6c1.5-1.8,1.7-4.8,1.1-7c-0.4-1.4-1.1-2.5-1.3-2.7c-0.1-0.4-0.8-2.1-1.6-3.5c-1.1-2.1-3.3-3.6-6.3-4.2
		c-2-0.4-4.4-0.5-6.2-0.3c-0.1,0-0.4,0.1-0.7,0.1c-1.3,0.2-4,0.7-4.9,0.7c-0.2,0-0.3-0.1-0.3-0.2c-0.1-0.2-0.3-0.6-0.1-1.5
		c0,0,0-0.1,0-0.1s0,0,0,0c0.2-1.4-0.1-2.6-1.1-3.4c-0.5-0.4-1.1-0.6-1.8-0.6c-0.6,0-1.3,0.1-1.9,0.2c-0.2,0-0.3,0.1-0.5,0.1
		c-0.8,0.2-1.7,0.3-2.4,0.1c-0.1,0-0.2-0.1-0.3-0.1c0,0,0,0,0,0c-1-0.5-2.7-2.3-3.7-3.3c0.1-0.2,0.2-0.4,0.3-0.7
		c0.1-0.2,0.1-0.4,0.3-0.6c0.1-0.2,0.4-0.7,0.6-1c0.1-0.1,0.1-0.3,0.1-0.5c0-0.2-0.2-0.3-0.3-0.4c-0.5-0.3-1.1-0.4-1.5-0.5
		c0.7-1.1,1.2-2.6,1.3-2.8c0.1-0.2,0-0.4-0.1-0.6c-0.1-0.2-0.3-0.3-0.5-0.3c0,0,0,0,0,0c-3,0.1-4.5,0.7-5.2,1.2
		c-0.3-0.2-0.8-0.4-1.4-0.4c-0.2,0-0.5,0-0.7,0.1c-0.9,0.2-1.4,0.9-1.6,1.4c-0.6,0.2-1.7,0.6-2.8,2.2c-1.5,2.1-3.2,3.1-4,3.7
		c-0.2,0.1-0.3,0.2-0.4,0.3c-1,0.8-2.1,2.1-0.8,4.6c0.9,1.8,3.1,2.4,4.9,2.4c0.4,0,0.8,0,1.2-0.1c0.2,0.3,0.4,0.8,0.2,1.4
		c-0.1,0.3-0.3,0.6-0.4,0.9l-0.1,0.3c-0.4,0.7-0.8,1.4-0.5,2.6c-0.5,0.3-1.1,1-1.2,1.8c-0.1,0.4-0.1,0.8,0.1,1.3c0,0-0.1,0-0.1,0
		l-0.4-0.1c-0.8-0.2-1.7-0.4-2.6,0c-1,0.4-2.4,1.5-3.5,4.5c-0.3,0.8-0.6,1.6-0.2,2.3c0,0.1,0.1,0.2-0.4,0.5
		c-0.4,0.2-0.7,0.7-0.7,1.2c0,0.3,0.1,0.6,0.2,0.9l0,0c0,0,0,0,0,0.1c0,0.1,0,0.1,0,0.1c-0.2,0.2-0.3,0.5-0.4,0.8
		c-0.2,0.7-0.3,0.8-0.3,1.2C215.6,38.6,216.5,39.9,218.3,40.5z M216.3,37.7c0.1-0.3,0.1-0.4,0.3-1c0.1-0.3,0.3-0.6,0.4-0.7
		c0.1-0.2,0.1-0.5,0-0.7c0,0,0,0,0,0c0,0,0,0,0,0c-0.1-0.2-0.1-0.3-0.1-0.5c0-0.3,0.2-0.6,0.4-0.8c0.6-0.4,0.8-0.8,0.6-1.2
		c-0.2-0.5-0.1-1.1,0.3-1.9c1-2.8,2.3-3.8,3.2-4.2c0.7-0.3,1.5-0.1,2.2,0.1l0.4,0.1c0.4,0.1,0.6,0,0.7-0.1c0.1-0.1,0.1-0.2,0-0.4
		c-0.1-0.4-0.1-0.7-0.1-1.1c0.1-0.7,0.7-1.3,1.1-1.5c0.1-0.1,0.2-0.2,0.1-0.3c-0.3-1.1,0-1.6,0.4-2.3l0.2-0.3c0.2-0.3,0.3-0.6,0.4-1
		c0.3-1-0.1-1.8-0.4-2c-0.1-0.1-0.2-0.1-0.3-0.1c-0.4,0.1-0.9,0.1-1.3,0.1c-1.6,0-3.6-0.6-4.4-2.1c-1.1-2.1-0.4-3.1,0.6-3.9
		c0.1-0.1,0.2-0.1,0.4-0.2c0.8-0.5,2.6-1.6,4.2-3.8c1.1-1.6,2.2-1.9,2.6-2c0.1,0,0.2-0.1,0.2-0.2c0.2-0.4,0.6-1,1.3-1.2
		c0.2-0.1,0.4-0.1,0.6-0.1c0.6,0,1,0.2,1.2,0.5c0.1,0.1,0.2,0.1,0.3,0c0.5-0.4,1.8-1.1,5.1-1.2c0,0,0.1,0,0.1,0c0,0,0,0.1,0,0.1
		c0,0.1-0.7,1.9-1.5,3c-0.1,0.1-0.1,0.2,0,0.3c0,0.1,0.1,0.1,0.2,0.1c0.5,0,1.1,0.1,1.7,0.4c0,0,0,0,0,0.1c0,0,0,0.1,0,0.1
		c0,0-0.5,0.8-0.6,1.1c-0.1,0.3-0.2,0.5-0.3,0.7c-0.1,0.3-0.2,0.5-0.3,0.7c-0.1,0.1,0,0.2,0,0.3c0.3,0.3,2.7,2.8,4,3.6c0,0,0,0,0,0
		c0.1,0.1,0.3,0.1,0.4,0.2c0.8,0.3,1.8,0.1,2.6-0.1c0.2,0,0.3-0.1,0.5-0.1c0.6-0.1,1.2-0.2,1.7-0.2c0.6,0,1.1,0.1,1.5,0.4
		c0.8,0.7,1.1,1.7,0.9,2.9c0,0,0,0.1,0,0.1c-0.1,0.3-0.2,1.4,0.2,1.9c0.2,0.2,0.4,0.4,0.8,0.4c0.9,0,3.6-0.5,5-0.7
		c0.3-0.1,0.5-0.1,0.7-0.1c0.7-0.1,1.4-0.2,2.2-0.2c1.3,0,2.6,0.1,3.8,0.4c2.9,0.6,4.9,2,6,4c0.8,1.4,1.5,3.1,1.6,3.4c0,0,0,0,0,0.1
		c0.1,0.2,0.8,1.2,1.2,2.6c0.5,2,0.3,5-1.1,6.6c-0.1,0.1-0.1,0.2,0,0.3l0.1,0.1c0.4,0.7,0.4,1.5,0.1,2.1c-0.8,1.8-2.7,2-3.7,2.1
		l-0.2,0c-0.4,0.1-2.9,0.2-6,0.2h0c-2.8,0-8-0.1-10.9-0.7c0,0,0,0-0.1,0c0,0,0,0,0,0c-1.7,0.3-4.8,0.5-7.7,0.5c-0.7,0-1.3,0-1.8,0
		c-1-0.1-3.1-0.4-3.5-0.8c-0.1-0.1-0.2-0.1-0.3,0c-0.1,0.1-1.2,0.8-2.9,0.8h0c0,0,0,0,0,0c-1.3,0-4-0.1-6-0.3
		c-0.3,0-0.6-0.1-0.9-0.1c-0.8-0.1-1.4-0.1-1.9,0c-0.2,0-0.4,0.1-0.6,0.1c-0.5,0.1-1.1,0.3-2,0.3c-0.1,0-0.2,0-0.3,0
		c-0.4,0-0.8-0.1-1.3-0.2C216.9,39.5,216.2,38.4,216.3,37.7z"/>
	<path class="st1" d="M259.4,21.2L259.4,21.2c0.7,0.7,1.4,1.5,2.1,2.2l0,0c1.7,1.6,3.1,1.6,3.2,1.6c1,0,1.9-0.6,2.1-0.8c0,0,0,0,0,0
		c-0.1-0.3-0.3-0.5-0.4-0.7c-0.1-0.1-0.5-0.8-0.6-1.1c-0.2-0.3-0.4-0.5-0.6-0.8c-1.8-1.8-4.5-2.4-6.5-2.6l0,0
		c-0.4,0-0.7-0.1-1.1-0.1c-0.1,0-0.3,0-0.4,0c0.5,0.3,0.9,0.7,1.3,1.1C258.7,20.5,259,20.8,259.4,21.2z"/>
	<path class="st1" d="M233.7,12.2C233.7,12.2,233.7,12.2,233.7,12.2c0.2,0.6,0.5,1.9-0.2,2.9c-0.9,1.3-2.6,1.6-3.9,1.8l-0.3,0.1
		c-0.1,0-0.2,0-0.4,0.1c-0.3,0-1.1,0.2-1.1,0.4c0,0.3,0.3,0.5,0.8,0.5c0.2,0,0.4,0,0.6-0.1c0.3-0.1,0.6-0.2,0.9-0.4
		c0.1,0,0.2-0.1,0.2-0.1c0.2,0,0.4,0.1,0.5,0.3c0.1,0.1,0.1,0.3,0,0.4c0,0.1-0.1,0.2-0.3,0.3c-0.7,0.4-1.4,0.6-2,0.8
		c-0.1,0-0.2,0.1-0.1,0.3c0.1,0.2,0.1,0.2,0.3,0.2c2.8-0.6,6.9-2.1,10.7-5.6c-1.2-0.9-2.6-2.3-3.3-3
		C235.8,11.5,234.9,12.2,233.7,12.2z"/>
	<path class="st1" d="M232.7,7.2c0.9,0,2-0.7,2.7-1.7c0.4-0.6,0.7-1.1,0.8-1.4c-1.9,0.2-4.2,0.8-4.6,1.7c-0.1,0.3-0.1,0.7,0.2,1
		C232.1,7.1,232.4,7.2,232.7,7.2z"/>
	<path class="st1" d="M226.5,24.9c0.1,0,0.2,0,0.3,0c1.4,0,2.8-0.1,4.4-0.3c3.1-0.4,8.2-1.5,14.3-4.4c0.1,0,0.1-0.1,0.1-0.2
		c0-0.1-0.1-0.2-0.5-0.3c-1.2-0.2-1.4-1.2-1.4-1.2c0,0-0.2-0.4,0.1-0.7c0.2-0.1,0.6-0.1,0.7,0.2c0,0,0.4,0.5,1.2,0.5h0.1
		c0.7,0,1.6-0.7,1.8-1.3c0.3-1.2,0.1-2.1-0.6-2.6c-0.3-0.2-0.6-0.3-1.1-0.3c-0.2,0-0.3,0-0.5,0c-1.2,0.2-2,1.2-2.2,1.5l-0.7,0.8
		c-2.8,3.2-6.3,4.7-9.7,5.8c-2.9,1-5.3,1.3-6.2,1.3c-0.2,0-0.5,0.2-0.5,0.6C226,24.7,226.2,24.9,226.5,24.9z"/>
	<path class="st1" d="M226.4,36.5c-0.3-0.4-0.8-1.1-1.4-1.5c-0.7-0.5-1.4-0.5-1.8-0.3c-0.4,0.3-0.5,0.6-0.6,0.9
		c-0.1,0.3-0.2,1.1-0.3,1.9c-0.1,0.7,0.6,1.2,1.8,1C225.4,38.4,227.3,38.1,226.4,36.5C226.4,36.5,226.4,36.5,226.4,36.5z"/>
	<path class="st1" d="M217,38.1C217,38.1,217,38.1,217,38.1c0.2-0.7,0.4-1.2,0.4-1.2c0.1-0.2,0.2-0.3,0.3-0.3c0,0,0.1,0,0.1,0
		c0,0,0.1,0.1,0.1,0.1c0,0.1,0,0.3-0.1,0.4c0,0.1-0.3,0.7-0.4,1.5c0,0.1,0.4,0.3,0.3,0.3c0,0,0.1,0,0.1,0.1c0.5,0.2,0.8-0.2,0.9-1.2
		c0.2-1.6-0.1-1.9-0.4-2l-0.1,0c-0.2-0.1-0.4-0.3-0.5-0.6c0.1-0.6,0.7-0.6,1.1-0.6c0.2,0,0.5,0,0.9,0c0.4,0,0.8-0.2,0.9-0.6
		c0.2-0.5,0.1-1.1-0.5-1.5c-0.8-0.7-1.1-1.1-0.9-1.5c0.1-0.2,0.3-0.3,0.5-0.3c0.2,0,0.5,0.1,0.9,0.3c0.1,0.1,0.2,0.1,0.3,0.1
		c0.5,0,0.9-0.6,1.1-0.9c0.2-0.4,0.5-0.8,1-1.2c0.3-0.2,0.7-0.2,0.9,0c0.1,0.1,0.2,0.3,0.1,0.5c0,0.3-0.1,0.6-0.3,1
		c-0.3,0.6-0.3,1.2-0.1,1.7c0.2,0.5,0.6,0.9,1.2,1.1c0.9,0.3,1.3,0.2,2.2-0.1c0.7-0.2,1.1-0.2,1.2,0.1c0.1,0.2,0.1,0.5-0.2,0.9
		c-0.5,0.9-0.9,1.9-0.5,2.3c0,0,0.1-0.1,0.2-0.2c0.3-0.6,0.7-1.6,1.9-1.6c0.2,0,0.4,0,0.7,0.1c0.1,0,0.2,0.1,0.2,0.2
		c0,0.1,0,0.2-0.1,0.3c-0.4,0.4-1.2,1.6-0.3,2.7c0.3,0.3,0.7,0.5,1.2,0.6c0.2,0,0.3,0,0.4,0c1.2,0,1.7-0.8,1.8-1.2
		c0-0.1,0.1-0.3,0.1-0.4c0.1-0.3,0.1-0.7,0.4-1.2c0.3-0.6,0.7-1.2,1.4-1.6c1.5-1.1,2.4-2.7,2.6-3.2l0.1-0.2c0.1-0.4,0.2-0.7,0.6-0.7
		l0,0c0.2,0,0.3,0.1,0.4,0.2c0.2,0.2,0.2,0.6,0,1.1c-0.2,0.6-1.1,2-1.9,2.8c-0.4,0.4-0.8,1.7-0.4,2.7c0.2,0.6,0.6,0.9,1.3,0.9
		c0.1,0,0.2,0,0.3,0c0.7,0.1,1.3,0.1,1.9,0.1c1.6,0,2.8-0.2,3.4-0.6c0.7-0.4,1-0.7,1.2-1.2c0.3-0.9,0.6-2.1,0.9-3.7
		c0.7-4.4-0.4-7-0.9-7.8c-0.2,0.2-0.4,0.4-0.8,0.4c-0.1,0-0.2,0-0.3,0c-0.3,0-0.6-0.1-0.8-0.3c-0.1,0.2-0.3,0.5-0.6,0.6
		c-0.2,0.1-0.4,0.1-0.6,0.1c-0.3,0-0.6-0.1-0.7-0.2c-0.1,0.2-0.3,0.6-0.8,0.7c-0.1,0-0.2,0-0.4,0c-0.3,0-0.5-0.1-0.7-0.2
		c-0.1,0.2-0.3,0.5-0.8,0.7c-0.1,0-0.2,0.1-0.4,0.1c-0.3,0-0.5-0.1-0.7-0.2c-0.1,0.3-0.3,0.7-0.8,0.8c-0.1,0-0.3,0-0.4,0
		c-0.4,0-0.6-0.2-0.8-0.3c-0.1,0.2-0.3,0.5-0.8,0.6c-0.1,0-0.3,0-0.4,0c-0.4,0-0.6-0.1-0.8-0.2c-0.1,0.2-0.3,0.5-0.8,0.6
		c-0.1,0-0.3,0.1-0.4,0.1c-0.3,0-0.5-0.1-0.6-0.2c-0.1,0.2-0.3,0.4-0.7,0.5c-0.1,0-0.2,0-0.3,0c-0.4,0-0.7-0.2-0.8-0.3
		c-0.1,0.1-0.1,0.2-0.1,0.4c0,0.3,0,0.5,0.7,1.3c0.3,0.3,0.6,0.7,1,1l0,0c0.9,0.9,1.7,1.6,1.5,2.1c-0.1,0.2-0.3,0.3-0.5,0.3
		c-0.4,0-1-0.3-2-0.9c-0.1-0.1-0.2-0.1-0.3-0.2l-0.1-0.1c-0.3-0.2-1-0.7-1.3-0.9c-0.5-0.4-2.7-1.8-3.5-2.3c0,0,0,0-0.1,0l-0.1,0
		c-0.5-0.3-1.9-1.3-3.1-1.3c-0.2,0-0.4,0-0.6,0.1c-0.8,0.3-1.9,1.2-2.8,3.8c-0.2,0.4-0.4,1.2-0.3,1.4c0.2,0.5,0.4,1.3-0.9,2
		c-0.1,0-0.1,0.1-0.1,0.2c0,0,0,0,0,0c0,0,0,0,0,0.1c0,0.1,0.1,0.2,0.1,0.3l0,0c0,0,0,0,0,0c0.2,0.3,0.1,0.7-0.2,1.1
		c-0.1,0.1-0.1,0.2-0.2,0.3c0,0,0,0,0,0c-0.1,0.1-0.1,0.1-0.1,0.2c0,0-0.2,0.6-0.3,0.9c-0.1,0.4,0,0.6,0,0.6L217,38.1z M218,37.2
		c0,0,0.1-0.2,0.1-0.4C218.1,37,218.1,37.1,218,37.2c0,0.1-0.2,0.4-0.3,0.9C217.9,37.6,218,37.3,218,37.2z"/>
	<path class="st1" d="M246.8,22.8c-0.3,0.1-0.5,0.4-0.7,0.6c-0.1,0.3-0.1,0.7,0.1,1.1c0.1,0.3,0.3,0.7,0.4,1.1
		c0.1,0.2,0.3,0.8,1,0.8c0.1,0,0.2,0,0.3,0c0.9-0.2,0.9-0.6,0.9-1.1c0-0.5-0.2-1.3-0.4-1.9c-0.2-0.5-0.7-0.6-1-0.6
		C247.1,22.7,246.9,22.8,246.8,22.8z"/>
	<path class="st1" d="M248,31.6C248,31.6,248,31.6,248,31.6c-0.7,0-1,0.3-1.1,0.8c-0.1,0.4-0.1,0.6-0.1,0.8c0,0.1,0,0.2-0.1,0.4
		c0,0.1,0,0.5,0.2,0.8c0.2,0.2,0.5,0.4,0.8,0.4c0,0,0.1,0,0.1,0c0.6,0,1-0.3,1.1-1c0.1-0.3,0.1-1,0.1-1.3c0-0.1-0.1-0.4-0.3-0.6
		C248.7,31.8,248.4,31.6,248,31.6z"/>
	<path class="st1" d="M248,27.2c-0.3,0-0.6,0.1-0.8,0.3c-0.2,0.2-0.3,0.5-0.3,0.8c0,0.4,0,0.6,0,0.9c0,0.2,0,0.3,0,0.5
		c0,0.5,0.2,1.1,1.1,1.1v0l0,0c1,0,1.1-0.6,1.1-1.1c0-0.4,0-1.2-0.1-1.7C249,27.3,248.5,27.2,248,27.2L248,27.2z"/>
	<path class="st1" d="M253.8,35.9c0,0,0.5-0.1,0-0.4c-0.5-0.3-1.4-0.8-2.4-0.3c-1.1,0.4-1.1,1.3-0.6,1.5c0.6,0.2,1.2,0.3,1.1,0.5
		c-0.1,0.4-1.6-0.4-1.7,0.6c-0.1,0.8,0.3,1,1.4,1.1c0.1,0,0.2,0,0.2-0.1C251.8,38.3,252,36.5,253.8,35.9z"/>
	<path class="st1" d="M257,37.3c-0.7,0-2-0.2-2.5-0.8c-0.1-0.1-0.1-0.1-0.3-0.1c-0.5,0.2-1.7,0.7-1.8,2.3c0,0.1,0,0.2,0.1,0.3
		c0.2,0.1,0.5,0.4,1,0.4c0.1,0,0.2,0,0.2-0.1c0-0.3,0.1-1.1,0.6-1.7c0.3-0.5,0.8-0.1,0.5,0.2c-0.1,0.2-0.5,1-0.4,1.6
		c0,0.1,0.1,0.2,0.2,0.2c0.3,0.1,0.9,0.2,1.8,0c0,0,0.1,0,0.2-0.1c0.2-0.2,0.7-0.6,0.9-1.9C257.4,37.4,257.1,37.3,257,37.3z"/>
	<path class="st1" d="M256.6,35.6c-0.9-0.1-0.9-0.4-0.9-0.6c0-0.3,0.3-0.5,0.4-0.6c-0.3-0.3-0.5-0.7-0.5-0.7
		c-0.3,0.2-0.8,0.7-0.8,1.3c0,0.4,0.2,1.4,1.7,1.5c0.7,0,1.1,0.2,1.2,0.3c0,0,0.2-0.4,0.7-0.6C258,35.7,256.9,35.6,256.6,35.6z"/>
	<path class="st1" d="M261,36.7c0,0-0.8-0.3-1.7-0.2c-0.6,0.1-1.1,0.4-1.1,0.9c-0.1,1.6,1.6,1.5,2.2,1.5c0.7,0,3.2,0,3.2,0
		C262.9,37.8,261.9,37,261,36.7z"/>
	<path class="st1" d="M250,31.6c0,1.1,0.7,1.8,2.1,2.1c0.2,0,0.4,0.1,0.5,0.1c1.3,0,1.7-1.1,2-2.4l0.1-0.2c0.4-1.2,1.2-2.2,2.3-2.9
		c0.5-0.3,0.9-0.5,0.9-0.5c0.1,0,0.1,0,0.2,0c0.2,0,0.4,0.1,0.5,0.3c0.1,0.1,0.1,0.3,0,0.4c-0.1,0.1-0.2,0.2-0.3,0.3
		c-0.1,0-1.8,0.8-2.2,2.5c-0.2,0.8,0.1,1.7,0.6,2.5c0.5,0.7,1.6,1.8,3.9,2l0.4,0c0,0,0.1,0,0.1,0c2.7,0,4.6-0.6,5.6-1.8
		c1-1.2,0.7-2.8,0.6-3.2c0-0.1,0-0.3,0.1-0.4c0.1-0.1,0.2-0.2,0.3-0.2c0,0,0.1,0,0.1,0c0.3,0,0.5,0.2,0.5,0.4
		c0.1,0.6,0.4,2.5-0.9,4.2c0,0.1-0.1,0.1-0.1,0.2c-0.3,0.4-0.7,0.7-1,0.9c0,0,0.1,0,0.2,0c0.4,0,0.9-0.1,1.5-0.8
		c1.2-1.5,1.3-4.1,0.8-5.9c-0.3-1-0.7-1.8-0.9-2.2c-0.7,0.5-1.9,1-3.3,1c-1.2,0-3.2-0.6-5.1-2.4c-0.9-0.8-1.7-1.7-2.3-2.4l0,0
		c-0.3-0.4-0.6-0.7-0.9-0.9c-1-0.9-2.1-1.5-2.9-1.7c-0.1,0-0.1,0-0.2-0.1l-0.1,0c-0.2-0.1-0.5-0.1-0.8-0.2c-0.5-0.1-0.9-0.1-1.4,0
		c-0.2,0.1-0.4,0.1-0.6,0.2l0,0c0,0,0,0-0.1,0c-0.7,0.3-1.4,1-1.2,2.2C249.3,22.7,250.4,27.8,250,31.6z M267.6,27.6
		c0.1,0.1,0.1,0.3,0.1,0.4c0,0.5-0.4,1-0.9,1c-0.4,0-0.8-0.3-0.9-0.8C266.5,28.1,267,27.9,267.6,27.6z M264.7,28.3
		c0.2,0,0.4,0,0.7,0c0.1,0.5,0.4,0.9,0.8,1.1c-0.2,0.1-0.4,0.2-0.6,0.2c-0.5,0-1-0.4-1-1C264.7,28.5,264.7,28.4,264.7,28.3z
		 M263.5,28.2c0.2,0,0.4,0.1,0.6,0.1c0,0.1,0,0.2,0,0.3c0,0.4,0.1,0.7,0.4,1c-0.6,0.1-1.1-0.4-1.1-1
		C263.4,28.5,263.5,28.4,263.5,28.2z M262.3,27.8c0.2,0.1,0.5,0.2,0.7,0.3c-0.1,0.2-0.1,0.4-0.1,0.6c0,0.3,0.1,0.6,0.2,0.8
		c-0.6,0.1-1.1-0.4-1.1-1C262,28.2,262.1,28,262.3,27.8z M261.2,27.3c0.2,0.1,0.4,0.2,0.6,0.3c-0.2,0.3-0.3,0.6-0.3,0.9
		c0,0.2,0,0.3,0.1,0.5c-0.4-0.1-0.8-0.5-0.8-0.9C260.8,27.7,260.9,27.4,261.2,27.3z M260.1,26.5c0.2,0.1,0.4,0.3,0.6,0.4
		c-0.3,0.3-0.5,0.7-0.5,1.1c0,0.1,0,0.2,0,0.3c-0.4-0.1-0.7-0.5-0.7-0.9C259.6,27,259.8,26.7,260.1,26.5z M259.1,25.6
		c0.1,0.1,0.2,0.2,0.3,0.3c0.1,0.1,0.2,0.2,0.3,0.3c-0.4,0.3-0.6,0.7-0.7,1.1c-0.3-0.2-0.5-0.5-0.5-0.9
		C258.5,26.1,258.7,25.8,259.1,25.6z M258.1,24.6c0.2,0.2,0.4,0.4,0.6,0.6c-0.4,0.3-0.7,0.7-0.7,1.2c-0.3-0.2-0.6-0.5-0.6-0.9
		C257.4,25.1,257.7,24.7,258.1,24.6z M257.1,23.6L257.1,23.6c0.2,0.2,0.4,0.4,0.5,0.6c-0.4,0.2-0.7,0.6-0.8,1.1
		c-0.3-0.2-0.4-0.5-0.4-0.8C256.5,24.1,256.8,23.7,257.1,23.6z M256.1,22.4c0,0,0.1,0.1,0.1,0.1c0.2,0.2,0.4,0.4,0.6,0.6
		c-0.4,0.2-0.7,0.6-0.8,1.1c-0.3-0.2-0.6-0.5-0.6-0.9C255.4,22.9,255.7,22.6,256.1,22.4z M254.9,21.6c0.2,0.1,0.5,0.3,0.7,0.5
		c-0.4,0.3-0.7,0.7-0.7,1.3c-0.3-0.2-0.5-0.5-0.5-0.9C254.4,22.1,254.6,21.8,254.9,21.6z"/>
	<path class="st1" d="M227.1,21.4C227.1,21.4,227.2,21.4,227.1,21.4l0.1,0c0,0.1,0,0.3,0,0.4c-0.2,0.1-0.3,0.3-0.3,0.5
		c0,0.3,0.3,0.6,0.6,0.6c0.3,0,0.6-0.3,0.6-0.6c0-0.3-0.2-0.6-0.6-0.6c0,0,0,0,0,0c-0.1-0.1,0-0.3,0-0.4l0,0c0.4,0,0.8-0.1,1.2-0.2
		l0,0c0,0.1,0,0.3,0,0.4c-0.1,0.1-0.2,0.2-0.2,0.4c0,0.3,0.2,0.5,0.5,0.5c0.3,0,0.5-0.2,0.5-0.5c0-0.3-0.2-0.5-0.5-0.5c0,0,0,0,0,0
		v0c-0.1-0.1,0-0.3,0-0.4l0,0c0.3-0.1,0.6-0.2,1-0.3l0,0c0,0.1,0,0.3,0,0.4c-0.1,0.1-0.2,0.2-0.2,0.3c0,0.2,0.2,0.4,0.4,0.4
		c0.2,0,0.4-0.2,0.4-0.4c0-0.2-0.2-0.4-0.4-0.4c0,0,0,0,0,0c-0.1-0.1,0-0.3,0-0.4c0.2,0,0.3-0.1,0.5-0.1l0.1,0l0,0
		c0.1,0.1,0.4,0.2,0.7,0.2c0.1,0,0.2,0,0.3,0c0.5-0.1,0.7-0.5,0.7-0.8l0,0l0.1,0l0,0l0,0c0.1,0.1,0.3,0.2,0.6,0.2
		c0.2,0,0.3,0,0.5-0.1c0.5-0.2,0.6-0.6,0.6-0.9l0-0.1l0.1-0.1l0,0c0.1,0.2,0.4,0.3,0.6,0.3c0.2,0,0.3,0,0.5-0.1
		c0.4-0.2,0.6-0.6,0.5-1l0-0.1l0,0c0,0,0,0,0,0l0.1,0l0,0c0.2,0.2,0.4,0.3,0.7,0.3c0.2,0,0.3,0,0.5-0.1c0.4-0.2,0.5-0.7,0.4-1.1
		l0-0.1l0.1-0.1l0,0c0.2,0.2,0.4,0.3,0.6,0.3c0.2,0,0.4-0.1,0.5-0.2c0.4-0.3,0.5-0.8,0.3-1.1l0-0.1l0.1-0.1l0,0
		c0.1,0.1,0.3,0.2,0.6,0.2c0.3,0,0.6-0.1,0.8-0.3c0.3-0.3,0.4-0.8,0.2-1.2c-0.1,0-0.3-0.1-0.4-0.1c0,0-0.1-0.1-0.2-0.1
		c-0.3,0.3-0.5,0.5-0.7,0.7c-1.4,1.2-3,2.3-4.7,3.2c-1.3,0.7-2.6,1.2-3.9,1.7c-1.9,0.6-3.4,0.9-4.1,1c-0.2,0.1-0.2,0.2-0.2,0.2
		C226.9,21.4,227,21.4,227.1,21.4z"/>
	<path class="st1" d="M226.4,26.9c0,0.4,0.3,0.8,0.8,0.8c0.4,0,0.8-0.3,0.8-0.8c0-0.4-0.3-0.8-0.8-0.8c0,0,0,0,0,0c0,0,0,0,0,0
		c-0.1-0.1,0-0.3,0-0.3c0-0.1,0-0.2-0.1-0.2c0,0,0,0-0.1,0c-0.1,0-0.1,0-0.1,0.1c0,0-0.1,0.3,0,0.5l0,0
		C226.6,26.3,226.4,26.6,226.4,26.9z"/>
	<path class="st1" d="M228.2,26.8c0,0.4,0.3,0.8,0.8,0.8c0.4,0,0.8-0.3,0.8-0.8c0-0.4-0.3-0.8-0.8-0.8l0,0c0,0,0,0,0,0
		c-0.1-0.2,0-0.3,0-0.3c0-0.1,0-0.2-0.1-0.2c0,0,0,0-0.1,0c-0.1,0-0.1,0-0.1,0.1c0,0-0.1,0.3,0,0.5l0,0
		C228.4,26.2,228.2,26.5,228.2,26.8z"/>
	<path class="st1" d="M230,26.6c0,0.4,0.3,0.8,0.8,0.8c0.4,0,0.8-0.3,0.8-0.8c0-0.4-0.3-0.7-0.6-0.7c0,0,0,0,0,0c0,0-0.1,0-0.1,0
		c0,0,0,0,0,0h0c0,0,0,0,0,0l0,0c0,0,0,0,0,0c-0.1-0.2,0-0.3,0-0.3c0-0.1,0-0.2-0.1-0.2c0,0,0,0-0.1,0c-0.1,0-0.1,0-0.1,0.1
		c0,0-0.1,0.3,0,0.5l0,0C230.2,26,230,26.3,230,26.6z"/>
	<path class="st1" d="M231.7,26.3c0,0.4,0.3,0.8,0.8,0.8c0.4,0,0.8-0.3,0.8-0.8c0-0.4-0.3-0.8-0.8-0.8l0,0c0,0,0,0,0,0
		c-0.1-0.2,0-0.3,0-0.3c0-0.1,0-0.2-0.1-0.2c0,0,0,0-0.1,0c-0.1,0-0.1,0-0.1,0.1c0,0-0.1,0.3,0,0.5l0,0
		C231.9,25.7,231.7,25.9,231.7,26.3z"/>
	<path class="st1" d="M234.1,25.2L234.1,25.2C234.1,25.2,234.1,25.2,234.1,25.2c-0.1,0-0.1,0.1-0.2,0.1c0,0,0,0,0,0
		c-0.2,0.1-0.3,0.3-0.3,0.6c0,0.4,0.3,0.8,0.8,0.8c0.4,0,0.8-0.3,0.8-0.8c0-0.3-0.2-0.5-0.4-0.7c0,0-0.1,0-0.1,0c0,0,0,0,0,0
		c0,0-0.1,0-0.1,0c0,0,0,0,0,0c0,0-0.1,0-0.1,0h0l0,0c0,0,0,0,0,0c-0.1-0.1,0-0.3,0-0.3c0-0.1,0-0.2-0.1-0.2c0,0,0,0-0.1,0
		c-0.1,0-0.1,0-0.1,0.1C234.1,24.7,234,24.9,234.1,25.2L234.1,25.2L234.1,25.2C234.1,25.2,234.1,25.2,234.1,25.2z"/>
	<path class="st1" d="M235.6,25.5c0,0.4,0.3,0.8,0.8,0.8c0.4,0,0.8-0.3,0.8-0.8c0-0.4-0.3-0.8-0.8-0.8l0,0c0,0,0,0,0,0
		c-0.1-0.2,0-0.3,0-0.3c0-0.1,0-0.2-0.1-0.2c0,0,0,0-0.1,0c-0.1,0-0.1,0-0.1,0.1c0,0-0.1,0.3,0,0.5l0,0
		C235.8,24.9,235.6,25.2,235.6,25.5z"/>
	<path class="st1" d="M237.9,24.2c-0.1,0-0.1,0.1-0.2,0.1c0,0,0,0,0,0c-0.2,0.1-0.3,0.3-0.3,0.6c0,0.4,0.3,0.8,0.8,0.8
		c0.4,0,0.8-0.3,0.8-0.8c0-0.2-0.1-0.5-0.3-0.6c-0.1-0.1-0.3-0.2-0.4-0.2l0,0l0,0c0,0,0,0,0,0c-0.1-0.1,0-0.3,0-0.3
		c0-0.1,0-0.2-0.1-0.2c0,0,0,0-0.1,0c-0.1,0-0.1,0-0.1,0.1C237.9,23.7,237.8,23.9,237.9,24.2L237.9,24.2L237.9,24.2
		C237.9,24.2,237.9,24.2,237.9,24.2z"/>
	<path class="st1" d="M239.3,24.3c0,0.4,0.3,0.8,0.8,0.8c0.4,0,0.8-0.3,0.8-0.8c0-0.4-0.3-0.8-0.8-0.8l0,0c0,0,0,0,0,0
		c-0.1-0.2,0-0.3,0-0.3c0-0.1,0-0.2-0.1-0.2c0,0,0,0-0.1,0c-0.1,0-0.1,0-0.1,0.1c0,0-0.1,0.3,0,0.5l0,0
		C239.5,23.7,239.3,24,239.3,24.3z"/>
	<path class="st1" d="M241.1,23.7c0,0.4,0.3,0.8,0.8,0.8c0.4,0,0.8-0.3,0.8-0.8c0-0.4-0.3-0.7-0.7-0.7c0,0,0,0,0,0h0c0,0,0,0,0,0
		l0,0c0,0,0,0,0,0c-0.1-0.2,0-0.3,0-0.3c0-0.1,0-0.2-0.1-0.2c0,0,0,0-0.1,0c-0.1,0-0.1,0-0.1,0.1c0,0-0.1,0.2,0,0.5l0,0
		C241.3,23.2,241.1,23.4,241.1,23.7z"/>
	<path class="st1" d="M243.5,22.4c-0.1,0-0.1,0.1-0.2,0.1c0,0,0,0,0,0c-0.2,0.1-0.3,0.3-0.3,0.6c0,0.4,0.3,0.8,0.8,0.8
		c0.4,0,0.8-0.3,0.8-0.8c0-0.3-0.2-0.5-0.4-0.7c0,0-0.1,0-0.1,0c0,0,0,0,0,0c0,0-0.1,0-0.1,0l0,0c0,0-0.1,0-0.1,0l0,0l0,0
		c0,0,0,0,0,0c-0.1-0.2,0-0.3,0-0.3c0-0.1,0-0.2-0.1-0.2c0,0,0,0-0.1,0c-0.1,0-0.1,0-0.1,0.1C243.5,21.9,243.4,22.1,243.5,22.4
		L243.5,22.4L243.5,22.4C243.5,22.4,243.5,22.4,243.5,22.4z"/>
	<path class="st1" d="M258.2,22.4c0.6,0.7,1.4,1.6,2.2,2.3c2.1,2,4,2.1,4.3,2.1c1.2,0,2.2-0.5,2.8-0.9c-0.1-0.2-0.2-0.3-0.2-0.5
		c-0.5,0.3-1.4,0.9-2.6,0.9c-0.2,0-2-0.1-4-1.9c-0.8-0.7-1.6-1.6-2.2-2.3c-0.4-0.4-0.7-0.8-1-1c-0.7-0.7-1.5-1.2-2.5-1.7
		c-0.3,0-0.7,0.1-1,0.2c0.9,0.3,2.1,0.9,3.1,1.9C257.5,21.6,257.8,22,258.2,22.4z"/>
	<path class="st1" d="M228.3,15.9c0.1,0,0.3,0,0.4,0l0.1,0c0.1,0,0.2,0,0.3,0c0.2,0,0.3,0,0.4,0l0.1,0c1.2-0.2,2.5-0.4,3-1.3
		c0.4-0.7,0.3-1.6-0.3-2.7l-0.1-0.1c-0.2-0.3-0.6-1,0-1.4c0.3-0.2,0.8-0.6,0.9-0.7c0-0.2-0.1-0.7,0.4-1c0.4-0.2,0.7-0.2,0.9-0.2
		c0.1,0,0.3,0,0.4-0.1c0.1-0.1,0.3-0.1,0.3-0.1c0.2,0,0.2,0.1,0.2,0.2c0,0.1,0,0.3-0.1,0.4c0,0-0.1,0.1-0.2,0.2
		c-0.3,0.2-1.2,0.9-1.3,1.2c-0.1,0.2-0.2,0.7-0.1,0.9c0,0.1,0.1,0.1,0.2,0.1c1.1-0.1,1.8-1,1.9-1.2c0.2-0.4,0.3-0.5,0.4-0.9
		c0.1-0.2,0.2-0.4,0.3-0.7c0.1-0.1,0.2-0.4,0.3-0.6c-0.3-0.1-0.6-0.1-1-0.1c-0.3,0-0.5,0-0.6,0l-0.1,0C233.2,8,232,9.6,232,9.6
		c-0.3,0.5-0.7,0.7-1,0.7c-0.3,0-0.5-0.2-0.6-0.2c-0.1-0.1-0.4-0.4,0-1.2c0.3-0.7,0.2-1.7-0.3-2.2c-0.3-0.4-0.9-0.4-1.2-0.4
		c-0.2,0-0.3,0-0.4,0l-0.1,0c-0.3,0.1-1.2,0.4-2.2,1.7c-0.4,0.6-0.9,1.2-1.5,1.8c-0.3,0.4-0.8,0.8-1.2,1.1c-0.4,0.3-0.8,0.6-0.9,0.9
		l0,0c0,0.1-0.1,0.3-0.2,0.4c-0.2,0.1-0.3,0.1-0.4,0.1c-0.1,0-0.3,0-0.7,0.2c-0.5,0.2-0.7,0.6-0.7,1.3c0,0.4,0.1,0.9,0.4,1.4
		c0.2,0.3,0.5,0.6,0.8,0.9c0.2,0.1,0.4,0.2,0.7,0.2c0.3,0,0.7-0.1,1-0.3c0.6-0.3,0.8-0.8,0.9-1c0-0.1,0-0.1,0.1-0.2
		c0.1-0.1,0.4-0.7,0.8-0.7c0.2,0,0.4,0.1,0.6,0.3c0.1,0.1,0.2,0.3,0.1,0.4c0,0.3-0.3,0.5-0.5,0.7c0,0-0.2,0.1-0.2,0.3
		c0,0.1,0,0.2,0.1,0.3c0,0.1,0.2,0.2,0.5,0.2c0,0,0.1,0,0.1,0c0.3,0,0.6-0.1,0.9-0.2c0.3-0.1,0.6-0.2,0.9-0.2
		C227.9,15.9,228.1,15.9,228.3,15.9z M226.8,10.4c-0.3-0.1-0.6-0.2-0.9-0.4l-0.1-0.1l-0.1,0.1c0,0.1-0.1,0.1-0.1,0.2c0,0,0,0-0.1,0
		c0,0-0.1,0-0.1-0.1c0.1-0.5,0.2-1,0.5-1.4c0.1-0.2,0.3-0.4,0.5-0.6c0.2-0.2,0.4-0.3,0.7-0.4c0.2-0.1,0.5-0.1,0.7-0.1l0.1,0
		c0.3,0,0.5,0.1,0.8,0.1c0.1,0,0.2,0.1,0.3,0.1l0.4,0.2c0.1,0,0.2,0.1,0.3,0.1c0.1,0,0.2,0.1,0.3,0.1c0,0,0.1,0,0.1,0.1
		c0,0,0,0.1,0,0.1c-0.1,0-0.2,0.1-0.3,0l0,0l0,0c-0.1,0.1-0.1,0.2-0.2,0.3l-0.1,0.1c-0.1,0.1-0.1,0.3-0.2,0.4
		c-0.1,0.2-0.3,0.4-0.4,0.5c-0.2,0.1-0.4,0.3-0.6,0.3C227.7,10.5,227.2,10.5,226.8,10.4z"/>
	<path class="st1" d="M228.8,9.3c0.1-0.1,0.1-0.2,0.2-0.3l0,0c0.1-0.1,0.1-0.2,0.2-0.2c0.1-0.1,0.1-0.1,0.2-0.2l-0.2,0
		c-0.2,0-0.3-0.1-0.5-0.1c-0.2,0-0.5-0.1-0.7,0c0.1,0.1,0.1,0.2,0.1,0.3c0.2,0.5-0.1,1-0.6,1.2c-0.1,0-0.2,0-0.3,0
		c-0.4,0-0.7-0.2-0.9-0.6c-0.1,0.1-0.2,0.3-0.3,0.4c0.3,0.2,0.6,0.3,0.9,0.3c0.4,0,0.8,0,1.1-0.1C228.3,9.8,228.5,9.6,228.8,9.3z"/>
</g>
</svg>
